<?xml version="1.0" encoding="iso-8859-1"?>
<!-- Uploaded to: SVG Repo, www.svgrepo.com, Generator: SVG Repo Mixer Tools -->
<svg version="1.1" id="Layer_1" xmlns="http://www.w3.org/2000/svg" xmlns:xlink="http://www.w3.org/1999/xlink" 
	 viewBox="0 0 512 512" xml:space="preserve">
<rect x="192" y="64" style="fill:#FF9F99;" width="307.2" height="128"/>
<rect x="12.8" y="64" style="fill:#FFB7B2;" width="179.2" height="128"/>
<g>
	<rect x="12.8" y="192" style="fill:#FF877F;" width="332.8" height="128"/>
	<rect x="12.8" y="320" style="fill:#FF877F;" width="179.2" height="128"/>
	<rect x="345.6" y="192" style="fill:#FF877F;" width="153.6" height="128"/>
</g>
<rect x="192" y="320" style="fill:#BF655F;" width="307.2" height="128"/>
<path style="fill:#573A32;" d="M486.4,51.2H25.6C11.46,51.2,0,62.66,0,76.8v358.4c0,14.14,11.46,25.6,25.6,25.6h460.8
	c14.14,0,25.6-11.46,25.6-25.6V76.8C512,62.66,500.54,51.2,486.4,51.2z M25.6,76.8h153.6v102.4H25.6V76.8z M25.6,204.8h307.2v102.4
	H25.6V204.8z M179.2,435.2H25.6V332.8h153.6V435.2z M486.4,435.2H204.8V332.8h281.6V435.2z M486.4,307.2h-128V204.8h128V307.2z
	 M486.4,179.2H204.8V76.8h281.6V179.2z"/>
</svg>